<?xml version="1.0" standalone="no"?>
<!DOCTYPE svg PUBLIC "-//W3C//DTD SVG 20010904//EN"
 "http://www.w3.org/TR/2001/REC-SVG-20010904/DTD/svg10.dtd">
<svg version="1.0" xmlns="http://www.w3.org/2000/svg"
 width="159.000000pt" height="170.000000pt" viewBox="0 0 159.000000 170.000000"
 preserveAspectRatio="xMidYMid meet">

<g transform="translate(0.000000,170.000000) scale(0.100000,-0.100000)"
fill="#000000" stroke="none">
<path d="M685 1581 c-330 -53 -580 -308 -626 -639 -47 -335 166 -677 493 -792
125 -44 293 -50 425 -16 240 62 437 249 519 491 24 71 27 95 28 215 0 182 -26
272 -121 417 -127 194 -341 316 -576 327 -51 3 -115 1 -142 -3z m393 -366 c67
-20 106 -55 129 -113 16 -42 18 -80 18 -337 l0 -290 -77 -3 c-73 -3 -78 -1
-110 27 l-33 29 -5 209 c-3 114 -9 215 -13 224 -17 36 -56 41 -285 40 -123 -1
-250 1 -283 5 l-59 7 0 108 0 109 333 0 c270 0 343 -3 385 -15z m-500 -532 l2
-213 -70 0 c-81 0 -126 18 -140 56 -10 26 -14 356 -5 366 3 3 52 5 108 4 l102
-1 3 -212z m310 0 l2 -213 -110 0 -110 0 0 213 0 213 108 -1 107 0 3 -212z"/>
</g>
</svg>
