<?xml version="1.0" standalone="no"?>
<!DOCTYPE svg PUBLIC "-//W3C//DTD SVG 20010904//EN"
 "http://www.w3.org/TR/2001/REC-SVG-20010904/DTD/svg10.dtd">
<svg version="1.0" xmlns="http://www.w3.org/2000/svg"
 width="352.000000pt" height="234.000000pt" viewBox="0 0 352.000000 234.000000"
 preserveAspectRatio="xMidYMid meet">

<g transform="translate(0.000000,234.000000) scale(0.100000,-0.100000)"
fill="#000000" stroke="none">
<path d="M1374 1902 c-22 -18 -64 -75 -64 -87 0 -4 7 -2 15 5 12 10 15 10 15
0 0 -6 -9 -14 -19 -17 -28 -7 -42 -70 -48 -218 -8 -212 28 -328 125 -402 64
-49 128 -64 282 -70 270 -10 404 55 456 220 32 104 27 437 -7 437 -6 0 -8 4
-4 9 7 13 -26 82 -37 75 -4 -3 -8 -10 -8 -15 0 -6 4 -8 9 -5 12 8 21 -18 20
-52 -1 -27 -1 -27 -9 3 -4 17 -8 25 -9 19 -1 -13 -51 -6 -51 7 0 5 -7 9 -16 9
-8 0 -12 -4 -9 -10 4 -6 -8 -10 -29 -10 -20 0 -36 5 -36 11 0 11 -11 10 -55
-6 l-20 -7 20 18 c18 15 18 16 2 10 -10 -3 -23 -6 -28 -6 -6 0 -7 -4 -4 -10 3
-5 -1 -10 -10 -10 -9 0 -14 3 -12 8 3 4 -52 7 -121 6 -116 -1 -120 0 -42 6
l85 6 -98 2 c-59 1 -96 -2 -92 -7 8 -14 -12 -23 -36 -16 -17 6 -19 9 -8 17 10
7 9 8 -6 3 -39 -14 -61 -17 -47 -7 11 7 8 10 -11 14 -17 3 -29 -1 -38 -14 -20
-27 -57 -23 -65 7 -3 14 -10 25 -16 25 -5 0 -6 5 -3 10 4 6 11 7 17 4 7 -4 8
-2 4 5 -4 7 2 20 16 31 13 11 21 19 18 19 -3 1 -14 -7 -26 -17z m542 -128 c60
-28 65 -50 62 -261 l-3 -188 -42 -3 c-35 -3 -48 2 -68 22 -24 24 -25 30 -25
150 0 164 11 156 -217 156 l-173 0 0 70 0 70 216 0 c179 0 222 -3 250 -16z
m84 -69 c0 -5 -5 -3 -10 5 -5 8 -10 20 -10 25 0 6 5 3 10 -5 5 -8 10 -19 10
-25z m-412 -247 c-3 -147 -3 -147 -74 -134 -59 12 -64 24 -64 152 l0 114 70 0
71 0 -3 -132z m190 0 l-3 -133 -67 -3 -68 -3 0 136 0 135 70 0 71 0 -3 -132z"/>
<path d="M1406 1895 c-11 -8 -17 -17 -14 -20 2 -3 13 4 23 15 21 23 18 25 -9
5z"/>
<path d="M2006 1872 c-2 -4 4 -8 14 -8 10 0 16 4 14 8 -3 4 -9 8 -14 8 -5 0
-11 -4 -14 -8z"/>
<path d="M1848 1833 c7 -3 16 -2 19 1 4 3 -2 6 -13 5 -11 0 -14 -3 -6 -6z"/>
<path d="M2060 950 c0 -27 3 -30 30 -30 27 0 30 3 30 30 0 27 -3 30 -30 30
-27 0 -30 -3 -30 -30z"/>
<path d="M2258 933 c-3 -41 -6 -48 -25 -51 -17 -3 -23 -10 -23 -28 0 -20 4
-25 23 -22 22 3 22 1 27 -119 5 -116 6 -124 31 -149 25 -24 101 -49 114 -36 3
3 5 16 5 29 0 17 -6 23 -20 23 -12 0 -32 11 -45 25 -23 22 -25 31 -25 124 l0
100 43 3 c37 3 42 6 42 28 0 23 -3 24 -42 22 l-43 -4 0 51 c0 50 -1 51 -29 51
-28 0 -30 -2 -33 -47z"/>
<path d="M1154 868 c-16 -13 -34 -29 -40 -37 -9 -11 -12 -8 -17 18 -6 30 -8
31 -57 31 -46 0 -50 -2 -50 -24 0 -18 6 -25 23 -28 22 -3 22 -6 25 -150 l3
-148 29 0 30 0 0 100 c0 148 34 205 118 198 53 -4 62 -29 62 -175 l0 -123 30
0 30 0 0 101 c0 145 30 199 111 199 57 0 63 -16 69 -164 l5 -131 51 -3 c50 -3
51 -2 47 23 -4 15 -12 25 -23 25 -16 0 -18 13 -21 126 l-4 126 -33 29 c-51 46
-134 37 -186 -20 -22 -24 -36 -27 -36 -7 0 8 -12 24 -26 35 -37 29 -102 28
-140 -1z"/>
<path d="M1660 855 c0 -18 5 -25 18 -25 19 0 92 -95 92 -119 0 -11 -69 -124
-103 -168 -7 -10 -1 -13 27 -13 34 0 39 4 77 65 23 36 44 65 48 65 3 -1 24
-30 46 -65 36 -59 43 -65 72 -65 18 0 33 2 33 5 0 3 -26 44 -57 90 l-56 86 39
57 c25 36 48 58 62 60 16 3 22 10 22 28 0 21 -4 24 -39 24 -32 0 -43 -6 -65
-34 -14 -19 -31 -46 -37 -60 -7 -14 -15 -26 -18 -26 -4 0 -22 24 -40 54 -35
58 -46 66 -92 66 -24 0 -29 -4 -29 -25z"/>
<path d="M2020 856 c0 -19 5 -26 20 -26 19 0 20 -7 20 -138 0 -94 4 -142 12
-150 7 -7 31 -12 55 -12 39 0 43 2 43 24 0 18 -6 25 -22 28 -22 3 -23 7 -28
148 l-5 145 -47 3 c-46 3 -48 2 -48 -22z"/>
</g>
</svg>
