<?xml version="1.0" standalone="no"?>
<!DOCTYPE svg PUBLIC "-//W3C//DTD SVG 20010904//EN"
 "http://www.w3.org/TR/2001/REC-SVG-20010904/DTD/svg10.dtd">
<svg version="1.0" xmlns="http://www.w3.org/2000/svg"
 width="125.000000pt" height="128.000000pt" viewBox="0 0 125.000000 128.000000"
 preserveAspectRatio="xMidYMid meet">

<g transform="translate(0.000000,128.000000) scale(0.100000,-0.100000)"
fill="#000000" stroke="none">
<path d="M575 1122 c-3 -3 -22 -7 -41 -8 -20 0 -39 -5 -42 -10 -4 -5 -16 -10
-27 -12 -34 -5 -94 -34 -92 -45 1 -5 -4 -12 -12 -15 -9 -3 -11 0 -7 9 4 8 0 5
-8 -5 -9 -11 -16 -16 -16 -11 0 4 -9 0 -20 -10 -11 -10 -17 -21 -15 -25 3 -4
-3 -14 -12 -21 -14 -12 -16 -12 -9 1 5 8 -3 4 -16 -10 -14 -14 -23 -31 -20
-38 2 -7 1 -12 -4 -11 -21 4 -28 -2 -14 -11 13 -8 13 -10 -2 -10 -10 0 -25
-14 -34 -31 -9 -18 -11 -28 -4 -24 8 5 8 0 -1 -16 -13 -24 -15 -30 -17 -62 -1
-10 -6 -16 -11 -13 -9 6 -13 -30 -13 -104 1 -74 6 -119 14 -107 5 7 8 -1 9
-20 1 -18 3 -36 4 -40 2 -5 6 -18 10 -30 4 -13 12 -23 17 -23 5 0 6 -4 3 -10
-3 -5 -1 -10 4 -10 6 0 10 -4 9 -10 -5 -17 75 -105 132 -147 60 -43 147 -83
134 -61 -4 7 2 5 14 -6 12 -10 28 -16 36 -13 9 4 18 2 21 -3 8 -13 128 -12
184 1 57 13 131 47 131 60 0 6 4 8 9 5 13 -8 112 74 104 86 -3 6 -1 8 4 5 14
-9 37 19 27 34 -5 8 -3 9 6 4 10 -6 12 -4 7 9 -4 9 -3 15 2 12 11 -7 33 18 24
27 -3 4 -1 7 6 7 8 0 11 6 7 16 -3 8 -2 13 3 9 13 -7 33 58 25 81 -4 14 -3 15
4 6 7 -10 11 -5 16 18 10 52 7 182 -4 175 -6 -4 -8 7 -4 27 4 26 3 30 -5 18
-9 -12 -10 -9 -5 13 4 17 2 27 -5 27 -6 0 -10 3 -9 8 3 13 -14 62 -22 62 -4 0
-10 9 -13 21 -3 12 -10 18 -16 14 -7 -4 -8 0 -4 11 4 12 3 15 -5 10 -7 -4 -12
-1 -12 7 0 17 -115 127 -133 127 -7 0 -34 11 -60 25 -27 13 -67 27 -90 30 -78
11 -135 14 -142 7z m122 -196 c-7 -19 49 -44 65 -28 13 13 40 4 31 -11 -4 -6
2 -8 15 -5 12 4 20 3 17 -2 -5 -8 23 -25 37 -22 4 1 4 -6 1 -15 -5 -13 -8 -14
-17 -2 -26 34 -65 39 -281 39 l-215 0 0 -70 0 -70 108 -2 107 -2 -95 -6 c-88
-5 -91 -6 -40 -11 l55 -5 -67 -2 -68 -2 0 -147 c0 -155 -6 -186 -13 -64 -3 48
-9 76 -18 82 -11 7 -11 9 -1 9 25 0 6 25 -23 30 -44 8 -52 30 -34 97 8 32 20
57 26 56 6 -1 9 6 6 17 -4 14 0 20 11 20 10 0 14 5 11 10 -8 13 34 82 45 75 5
-3 10 1 13 7 3 10 8 10 21 -1 15 -12 25 -12 68 -1 28 7 70 13 92 13 53 -1 70
10 31 18 -20 4 -6 7 44 8 59 1 72 -2 68 -13z m56 -13 c-7 -2 -19 -2 -25 0 -7
3 -2 5 12 5 14 0 19 -2 13 -5z m160 -161 c7 -28 19 -47 29 -50 10 -2 18 -9 18
-14 0 -6 7 -4 16 3 16 13 17 8 12 -61 -6 -94 -47 -187 -109 -248 -45 -44 -116
-88 -127 -78 -3 3 0 6 6 6 9 0 9 6 1 24 l-11 24 -52 -17 c-43 -14 -60 -15
-111 -6 -82 15 -122 33 -128 55 -4 15 -13 19 -41 16 -20 -1 -36 2 -36 7 0 5
25 7 55 5 32 -2 55 1 56 7 0 6 1 57 1 115 1 63 2 79 4 40 2 -36 7 -80 10 -99
10 -62 19 -15 14 77 -3 54 -1 88 4 84 5 -3 7 1 4 10 -4 8 -2 21 3 29 5 8 8
-42 6 -128 -1 -78 -3 -138 -5 -133 -6 15 -32 12 -32 -4 0 -8 -6 -17 -12 -19
-8 -4 -7 -6 4 -6 9 -1 24 -4 34 -8 12 -4 15 -3 10 5 -9 14 13 16 34 2 10 -6
11 -10 3 -10 -7 0 -13 -4 -13 -10 0 -5 18 -10 40 -10 33 0 40 3 40 20 0 20
-39 38 -59 26 -5 -4 -12 -2 -16 4 -4 6 16 10 54 10 l61 0 0 146 0 146 -80 -4
c-44 -2 -80 0 -80 5 0 4 28 8 63 8 53 1 57 3 27 9 -30 6 -27 8 25 9 33 0 66
-3 73 -8 10 -6 15 -44 18 -132 6 -155 7 -166 24 -182 12 -10 12 -9 0 6 -12 17
-11 18 15 11 15 -4 51 -7 79 -7 l51 -1 3 67 c2 55 0 67 -13 67 -13 0 -15 18
-15 118 0 100 2 119 15 119 10 0 20 -17 28 -45z m-412 -73 c-5 -13 -10 -19
-10 -12 -1 15 10 45 15 40 3 -2 0 -15 -5 -28z"/>
<path d="M685 410 c-8 -13 5 -13 25 0 13 8 13 10 -2 10 -9 0 -20 -4 -23 -10z"/>
<path d="M685 384 c-20 -15 -20 -16 4 -12 14 2 26 9 29 16 5 16 -9 15 -33 -4z"/>
<path d="M1080 927 c0 -4 9 -25 19 -45 47 -92 64 -239 40 -354 -16 -79 -73
-187 -128 -245 -172 -180 -417 -222 -641 -110 -62 31 -162 118 -209 182 l-22
30 17 -34 c22 -47 106 -134 163 -170 26 -17 78 -42 116 -57 62 -24 84 -27 190
-28 103 0 129 4 180 24 165 64 280 185 343 358 24 68 23 248 -2 324 -17 52
-65 143 -66 125z"/>
</g>
</svg>
